<svg width="20" height="20" viewBox="0 0 20 20" fill="none" xmlns="http://www.w3.org/2000/svg">
<rect width="20" height="20" rx="10" fill="#F2F4F6"/>
<path d="M7.28842 5.312V10.208H8.32042C8.60842 9.524 9.24442 9.068 10.1204 9.068C11.3804 9.068 12.0164 9.788 12.0164 11.024C12.0164 12.212 11.4284 13.1 10.1084 13.1C9.08842 13.1 8.38042 12.56 8.17642 11.648H7.10842C7.32442 13.052 8.36842 14.024 10.0964 14.024C12.1244 14.024 13.0604 12.68 13.0604 11C13.0604 9.656 12.3884 8.132 10.2764 8.132C9.42442 8.132 8.65642 8.516 8.29642 9.008V6.272H12.5084V5.312H7.28842Z" fill="#B5BDC9"/>
</svg>
